<?xml version="1.0" standalone="no"?>
<!DOCTYPE svg PUBLIC "-//W3C//DTD SVG 20010904//EN"
 "http://www.w3.org/TR/2001/REC-SVG-20010904/DTD/svg10.dtd">
<svg version="1.0" xmlns="http://www.w3.org/2000/svg"
 width="512.000000pt" height="512.000000pt" viewBox="0 0 512.000000 512.000000"
 preserveAspectRatio="xMidYMid meet">
<metadata>
Created by potrace 1.11, written by Peter Selinger 2001-2013
</metadata>
<g transform="translate(0.000000,512.000000) scale(0.100000,-0.100000)"
fill="#000000" stroke="none">
<path d="M3127 4223 c-49 -145 -125 -371 -382 -1128 -86 -253 -168 -495 -181
-537 -14 -43 -29 -78 -34 -78 -5 0 -20 35 -34 78 -13 42 -54 163 -91 267 -36
105 -88 255 -115 335 -27 80 -80 235 -118 345 -38 110 -88 256 -111 325 -24
69 -50 144 -58 168 l-16 42 -188 0 c-109 0 -189 -4 -189 -9 0 -8 33 -102 135
-391 13 -36 44 -121 70 -190 26 -69 52 -143 60 -165 7 -22 30 -85 50 -140 37
-100 77 -212 120 -335 13 -36 40 -110 60 -165 20 -55 47 -129 60 -165 13 -36
40 -110 60 -165 20 -55 43 -118 50 -140 7 -22 24 -65 36 -95 l24 -55 5 -630 5
-630 173 -3 172 -2 0 608 0 608 36 105 c19 57 44 129 54 159 10 30 48 141 85
245 37 105 76 215 86 245 10 30 39 114 64 185 26 72 55 155 65 185 10 30 48
141 85 245 37 105 75 215 85 245 10 30 48 141 85 245 37 105 75 215 85 245 10
30 34 100 54 155 19 55 36 106 36 113 0 9 -40 12 -169 12 l-169 0 -45 -137z"/>
</g>
</svg>
